<svg xmlns="http://www.w3.org/2000/svg" viewBox="0 0 630 794" width="630" height="794" role="img" aria-label="一灯を立ててトリガーと通信させる（第 4 章）">
<defs><marker id="arrow" viewBox="0 0 10 10" refX="9" refY="5" markerWidth="8" markerHeight="8" orient="auto-start-reverse"><path d="M0,0 L10,5 L0,10 Z" fill="#7a7a7a"/></marker><linearGradient id="glow" x1="0" y1="0" x2="0" y2="1"><stop offset="0" stop-color="#f2a900" stop-opacity="0.35"/><stop offset="1" stop-color="#f2a900" stop-opacity="0"/></linearGradient><clipPath id="floor"><rect x="40" y="74" width="550.0" height="620.0"/></clipPath></defs>
<rect x="0.5" y="0.5" width="629" height="793" rx="8" fill="#ffffff" stroke="#d9d9d9"/>
<rect x="40.0" y="100.0" width="550.0" height="594.0" fill="#fbfaf7"/>
<text x="40.0" y="30.0" font-family="'Noto Sans JP','Noto Sans CJK JP','Hiragino Sans','Yu Gothic','Meiryo',sans-serif" font-size="16" text-anchor="start" fill="#333333" font-weight="bold"><tspan x="40.0" dy="0">一灯を立ててトリガーと通信させる（第 4 章）</tspan></text>
<text x="40.0" y="52.0" font-family="'Noto Sans JP','Noto Sans CJK JP','Hiragino Sans','Yu Gothic','Meiryo',sans-serif" font-size="12" text-anchor="start" fill="#7a7a7a" font-weight="normal"><tspan x="40.0" dy="0">白ホリの前に立つ。背景は照らさない</tspan></text>
<rect x="40.0" y="74.0" width="550.0" height="26" fill="#e6e1d8" stroke="#333333" stroke-width="1"/>
<rect x="40.0" y="100.0" width="550.0" height="22" fill="#e6e1d8" opacity="0.55"/>
<text x="315.0" y="91.0" font-family="'Noto Sans JP','Noto Sans CJK JP','Hiragino Sans','Yu Gothic','Meiryo',sans-serif" font-size="12" text-anchor="middle" fill="#333333" font-weight="normal"><tspan x="315.0" dy="0">白ホリの壁（照らさない）</tspan></text>
<path clip-path="url(#floor)" d="M198.4,491.6 L223.5,287.0 A206.1,206.1 0 0,1 403.0,466.5 Z" fill="#f2a900" opacity="0.16"/>
<line x1="198.4" y1="491.6" x2="315.0" y2="375.0" stroke="#f2a900" stroke-width="1" stroke-dasharray="3 4" opacity="0.7"/>
<line x1="179.0" y1="472.2" x2="295.6" y2="355.6" stroke="#b3541e" stroke-width="1" stroke-dasharray="5 3"/>
<line x1="175.4" y1="468.6" x2="182.5" y2="475.7" stroke="#b3541e" stroke-width="1.2"/>
<line x1="292.0" y1="352.0" x2="299.1" y2="359.1" stroke="#b3541e" stroke-width="1.2"/>
<text x="245.7" y="426.3" font-family="'Noto Sans JP','Noto Sans CJK JP','Hiragino Sans','Yu Gothic','Meiryo',sans-serif" font-size="12" text-anchor="middle" fill="#b3541e" font-weight="normal"><tspan x="245.7" dy="0">1.5m</tspan></text>
<path d="M315.0,435.5 A60.5,60.5 0 0,1 272.2,417.8" fill="none" stroke="#2f6db5" stroke-width="1.2"/>
<line x1="315.0" y1="375.0" x2="315.0" y2="595.0" stroke="#2f6db5" stroke-width="0.8" stroke-dasharray="2 3" opacity="0.6"/>
<text x="285.7" y="449.7" font-family="'Noto Sans JP','Noto Sans CJK JP','Hiragino Sans','Yu Gothic','Meiryo',sans-serif" font-size="12" text-anchor="middle" fill="#2f6db5" font-weight="normal"><tspan x="285.7" dy="0">45°</tspan></text>
<g transform="translate(315.0,375.0) rotate(90)"><ellipse cx="0" cy="0" rx="14" ry="27" fill="#a9b8cf" stroke="#333333" stroke-width="1.2"/><circle cx="3" cy="0" r="11" fill="#f1d9c2" stroke="#333333" stroke-width="1.2"/><path d="M14,-4 L19,0 L14,4 Z" fill="#f1d9c2" stroke="#333333" stroke-width="1"/></g>
<text x="315.0" y="335.0" font-family="'Noto Sans JP','Noto Sans CJK JP','Hiragino Sans','Yu Gothic','Meiryo',sans-serif" font-size="12" text-anchor="middle" fill="#333333" font-weight="normal"><tspan x="315.0" dy="0">被写体（モデル役の友人）</tspan></text>
<g transform="translate(198.4,491.6) rotate(-45.0) scale(1.0)"><rect x="-6" y="-33" width="30" height="66" fill="#f7f7f7" stroke="#333333" stroke-width="1.4"/><line x1="-6" y1="-33" x2="24" y2="0" stroke="#7a7a7a" stroke-width="0.8"/><line x1="-6" y1="33" x2="24" y2="0" stroke="#7a7a7a" stroke-width="0.8"/><rect x="22" y="-33" width="5" height="66" fill="#f2a900" stroke="#333333" stroke-width="1"/><circle cx="-12" cy="0" r="8" fill="#555" stroke="#333333" stroke-width="1"/></g>
<circle cx="168.7" cy="521.3" r="10" fill="#333333"/>
<text x="168.7" y="525.8" font-family="'Noto Sans JP','Noto Sans CJK JP','Hiragino Sans','Yu Gothic','Meiryo',sans-serif" font-size="12" text-anchor="middle" fill="#fff" font-weight="bold"><tspan x="168.7" dy="0">A</tspan></text>
<text x="153.1" y="540.9" font-family="'Noto Sans JP','Noto Sans CJK JP','Hiragino Sans','Yu Gothic','Meiryo',sans-serif" font-size="12" text-anchor="end" fill="#333333" font-weight="normal"><tspan x="153.1" dy="0">ソフトボックス 60×90cm</tspan><tspan x="153.1" dy="16.2">グループ A、出力 1/4</tspan><tspan x="153.1" dy="16.2">顔より少し上</tspan></text>
<g transform="translate(315.0,595.0) rotate(-90.0)"><rect x="-14" y="-11" width="20" height="22" rx="3" fill="#3c3c3c"/><rect x="6" y="-7" width="14" height="14" fill="#666" stroke="#333333" stroke-width="1"/><circle cx="20" cy="0" r="5" fill="#9ec5e8" stroke="#333333" stroke-width="1"/></g>
<text x="315.0" y="625.0" font-family="'Noto Sans JP','Noto Sans CJK JP','Hiragino Sans','Yu Gothic','Meiryo',sans-serif" font-size="12" text-anchor="middle" fill="#333333" font-weight="normal"><tspan x="315.0" dy="0">カメラ + XPro II-C（チャンネル 1）</tspan></text>
<text x="414.0" y="463.0" font-family="'Noto Sans JP','Noto Sans CJK JP','Hiragino Sans','Yu Gothic','Meiryo',sans-serif" font-size="12" text-anchor="start" fill="#7a7a7a" font-weight="normal"><tspan x="414.0" dy="0">サンドバッグはソフトボックスと</tspan><tspan x="414.0" dy="16.2">反対側の脚に載せる</tspan></text>
<g transform="translate(40.0,730.0)"><g transform="rotate(90) scale(0.5)"><ellipse cx="0" cy="0" rx="14" ry="27" fill="#a9b8cf" stroke="#333333" stroke-width="2"/><circle cx="3" cy="0" r="11" fill="#f1d9c2" stroke="#333333" stroke-width="2"/></g></g>
<text x="70.0" y="734.0" font-family="'Noto Sans JP','Noto Sans CJK JP','Hiragino Sans','Yu Gothic','Meiryo',sans-serif" font-size="11" text-anchor="start" fill="#7a7a7a" font-weight="normal"><tspan x="70.0" dy="0">被写体</tspan></text>
<g transform="translate(129.0,730.0)"><g transform="rotate(-90) scale(0.42)"><rect x="-6" y="-33" width="30" height="66" fill="#f7f7f7" stroke="#333333" stroke-width="2"/><rect x="22" y="-33" width="5" height="66" fill="#f2a900"/></g></g>
<text x="159.0" y="734.0" font-family="'Noto Sans JP','Noto Sans CJK JP','Hiragino Sans','Yu Gothic','Meiryo',sans-serif" font-size="11" text-anchor="start" fill="#7a7a7a" font-weight="normal"><tspan x="159.0" dy="0">ソフトボックス</tspan></text>
<g transform="translate(262.0,730.0)"><g transform="rotate(-90) scale(0.55)"><rect x="-14" y="-11" width="20" height="22" rx="3" fill="#3c3c3c"/><rect x="6" y="-7" width="14" height="14" fill="#666"/></g></g>
<text x="292.0" y="734.0" font-family="'Noto Sans JP','Noto Sans CJK JP','Hiragino Sans','Yu Gothic','Meiryo',sans-serif" font-size="11" text-anchor="start" fill="#7a7a7a" font-weight="normal"><tspan x="292.0" dy="0">カメラ</tspan></text>
<line x1="480" y1="730" x2="590" y2="730" stroke="#333333" stroke-width="1.5"/>
<line x1="480" y1="726" x2="480" y2="734" stroke="#333333" stroke-width="1.5"/>
<line x1="590" y1="726" x2="590" y2="734" stroke="#333333" stroke-width="1.5"/>
<text x="535.0" y="746.0" font-family="'Noto Sans JP','Noto Sans CJK JP','Hiragino Sans','Yu Gothic','Meiryo',sans-serif" font-size="11" text-anchor="middle" fill="#7a7a7a" font-weight="normal"><tspan x="535.0" dy="0">1m</tspan></text>
</svg>
