<svg xmlns="http://www.w3.org/2000/svg" viewBox="0 0 696 794" width="696" height="794" role="img" aria-label="キー、フィル、リムの三灯（第 7 章）">
<defs><marker id="arrow" viewBox="0 0 10 10" refX="9" refY="5" markerWidth="8" markerHeight="8" orient="auto-start-reverse"><path d="M0,0 L10,5 L0,10 Z" fill="#7a7a7a"/></marker><linearGradient id="glow" x1="0" y1="0" x2="0" y2="1"><stop offset="0" stop-color="#f2a900" stop-opacity="0.35"/><stop offset="1" stop-color="#f2a900" stop-opacity="0"/></linearGradient><clipPath id="floor"><rect x="40" y="74" width="616.0" height="620.0"/></clipPath></defs>
<rect x="0.5" y="0.5" width="695" height="793" rx="8" fill="#ffffff" stroke="#d9d9d9"/>
<rect x="40.0" y="100.0" width="616.0" height="594.0" fill="#fbfaf7"/>
<text x="40.0" y="30.0" font-family="'Noto Sans JP','Noto Sans CJK JP','Hiragino Sans','Yu Gothic','Meiryo',sans-serif" font-size="16" text-anchor="start" fill="#333333" font-weight="bold"><tspan x="40.0" dy="0">キー、フィル、リムの三灯（第 7 章）</tspan></text>
<text x="40.0" y="52.0" font-family="'Noto Sans JP','Noto Sans CJK JP','Hiragino Sans','Yu Gothic','Meiryo',sans-serif" font-size="12" text-anchor="start" fill="#7a7a7a" font-weight="normal"><tspan x="40.0" dy="0">上から見た配置。背景紙のブース、被写体は背景紙から 2.5m</tspan></text>
<rect x="198.4" y="82.0" width="299.2" height="18" fill="#9a9a9a" stroke="#333333" stroke-width="1"/>
<circle cx="198.4" cy="91.0" r="7" fill="#d9d4cc" stroke="#333333" stroke-width="1"/>
<circle cx="497.6" cy="91.0" r="7" fill="#d9d4cc" stroke="#333333" stroke-width="1"/>
<text x="348.0" y="74.0" font-family="'Noto Sans JP','Noto Sans CJK JP','Hiragino Sans','Yu Gothic','Meiryo',sans-serif" font-size="12" text-anchor="middle" fill="#333333" font-weight="normal"><tspan x="348.0" dy="0">グレーの背景紙（幅 2.72m）</tspan></text>
<path clip-path="url(#floor)" d="M231.4,491.6 L256.5,287.0 A206.1,206.1 0 0,1 436.0,466.5 Z" fill="#f2a900" opacity="0.16"/>
<line x1="231.4" y1="491.6" x2="348.0" y2="375.0" stroke="#f2a900" stroke-width="1" stroke-dasharray="3 4" opacity="0.7"/>
<path clip-path="url(#floor)" d="M422.8,581.8 L168.1,478.3 A274.9,274.9 0 0,1 552.3,339.3 Z" fill="#f2a900" opacity="0.16"/>
<line x1="422.8" y1="581.8" x2="348.0" y2="375.0" stroke="#f2a900" stroke-width="1" stroke-dasharray="3 4" opacity="0.7"/>
<path clip-path="url(#floor)" d="M503.1,219.9 L353.8,449.8 A274.2,274.2 0 0,1 273.2,369.2 Z" fill="#f2a900" opacity="0.16"/>
<line x1="503.1" y1="219.9" x2="348.0" y2="375.0" stroke="#f2a900" stroke-width="1" stroke-dasharray="3 4" opacity="0.7"/>
<line x1="212.0" y1="472.2" x2="328.6" y2="355.6" stroke="#b3541e" stroke-width="1" stroke-dasharray="5 3"/>
<line x1="208.4" y1="468.6" x2="215.5" y2="475.7" stroke="#b3541e" stroke-width="1.2"/>
<line x1="325.0" y1="352.0" x2="332.1" y2="359.1" stroke="#b3541e" stroke-width="1.2"/>
<text x="278.7" y="426.3" font-family="'Noto Sans JP','Noto Sans CJK JP','Hiragino Sans','Yu Gothic','Meiryo',sans-serif" font-size="12" text-anchor="middle" fill="#b3541e" font-weight="normal"><tspan x="278.7" dy="0">1.5m</tspan></text>
<line x1="448.7" y1="572.4" x2="373.9" y2="365.6" stroke="#b3541e" stroke-width="1" stroke-dasharray="5 3"/>
<line x1="444.0" y1="574.1" x2="453.4" y2="570.7" stroke="#b3541e" stroke-width="1.2"/>
<line x1="369.2" y1="367.3" x2="378.6" y2="363.9" stroke="#b3541e" stroke-width="1.2"/>
<text x="422.5" y="469.0" font-family="'Noto Sans JP','Noto Sans CJK JP','Hiragino Sans','Yu Gothic','Meiryo',sans-serif" font-size="12" text-anchor="middle" fill="#b3541e" font-weight="normal"><tspan x="422.5" dy="0">2m</tspan></text>
<line x1="522.5" y1="239.3" x2="367.4" y2="394.4" stroke="#b3541e" stroke-width="1" stroke-dasharray="5 3"/>
<line x1="526.1" y1="242.9" x2="519.0" y2="235.8" stroke="#b3541e" stroke-width="1.2"/>
<line x1="371.0" y1="398.0" x2="363.9" y2="390.9" stroke="#b3541e" stroke-width="1.2"/>
<text x="436.5" y="312.4" font-family="'Noto Sans JP','Noto Sans CJK JP','Hiragino Sans','Yu Gothic','Meiryo',sans-serif" font-size="12" text-anchor="middle" fill="#b3541e" font-weight="normal"><tspan x="436.5" dy="0">2m</tspan></text>
<line x1="249.0" y1="375.0" x2="249.0" y2="100.0" stroke="#b3541e" stroke-width="1" stroke-dasharray="5 3"/>
<line x1="244.0" y1="375.0" x2="254.0" y2="375.0" stroke="#b3541e" stroke-width="1.2"/>
<line x1="244.0" y1="100.0" x2="254.0" y2="100.0" stroke="#b3541e" stroke-width="1.2"/>
<text x="261.0" y="241.5" font-family="'Noto Sans JP','Noto Sans CJK JP','Hiragino Sans','Yu Gothic','Meiryo',sans-serif" font-size="12" text-anchor="middle" fill="#b3541e" font-weight="normal"><tspan x="261.0" dy="0">2.5m</tspan></text>
<path d="M348.0,435.5 A60.5,60.5 0 0,1 305.2,417.8" fill="none" stroke="#2f6db5" stroke-width="1.2"/>
<line x1="348.0" y1="375.0" x2="348.0" y2="595.0" stroke="#2f6db5" stroke-width="0.8" stroke-dasharray="2 3" opacity="0.6"/>
<text x="318.7" y="449.7" font-family="'Noto Sans JP','Noto Sans CJK JP','Hiragino Sans','Yu Gothic','Meiryo',sans-serif" font-size="12" text-anchor="middle" fill="#2f6db5" font-weight="normal"><tspan x="318.7" dy="0">45°</tspan></text>
<path d="M348.0,325.5 A49.5,49.5 0 0,1 383.0,340.0" fill="none" stroke="#2f6db5" stroke-width="1.2"/>
<line x1="348.0" y1="375.0" x2="348.0" y2="100.0" stroke="#2f6db5" stroke-width="0.8" stroke-dasharray="2 3" opacity="0.6"/>
<text x="373.1" y="318.5" font-family="'Noto Sans JP','Noto Sans CJK JP','Hiragino Sans','Yu Gothic','Meiryo',sans-serif" font-size="12" text-anchor="middle" fill="#2f6db5" font-weight="normal"><tspan x="373.1" dy="0">45°</tspan></text>
<g transform="translate(348.0,375.0) rotate(90)"><ellipse cx="0" cy="0" rx="14" ry="27" fill="#a9b8cf" stroke="#333333" stroke-width="1.2"/><circle cx="3" cy="0" r="11" fill="#f1d9c2" stroke="#333333" stroke-width="1.2"/><path d="M14,-4 L19,0 L14,4 Z" fill="#f1d9c2" stroke="#333333" stroke-width="1"/></g>
<text x="316.0" y="345.0" font-family="'Noto Sans JP','Noto Sans CJK JP','Hiragino Sans','Yu Gothic','Meiryo',sans-serif" font-size="12" text-anchor="end" fill="#333333" font-weight="normal"><tspan x="316.0" dy="0">被写体</tspan></text>
<g transform="translate(231.4,491.6) rotate(-45.0) scale(1.0)"><rect x="-6" y="-33" width="30" height="66" fill="#f7f7f7" stroke="#333333" stroke-width="1.4"/><line x1="-6" y1="-33" x2="24" y2="0" stroke="#7a7a7a" stroke-width="0.8"/><line x1="-6" y1="33" x2="24" y2="0" stroke="#7a7a7a" stroke-width="0.8"/><rect x="22" y="-33" width="5" height="66" fill="#f2a900" stroke="#333333" stroke-width="1"/><circle cx="-12" cy="0" r="8" fill="#555" stroke="#333333" stroke-width="1"/></g>
<circle cx="201.7" cy="521.3" r="10" fill="#333333"/>
<text x="201.7" y="525.8" font-family="'Noto Sans JP','Noto Sans CJK JP','Hiragino Sans','Yu Gothic','Meiryo',sans-serif" font-size="12" text-anchor="middle" fill="#fff" font-weight="bold"><tspan x="201.7" dy="0">A</tspan></text>
<text x="211.4" y="541.6" font-family="'Noto Sans JP','Noto Sans CJK JP','Hiragino Sans','Yu Gothic','Meiryo',sans-serif" font-size="12" text-anchor="end" fill="#333333" font-weight="normal"><tspan x="211.4" dy="0">キー 1/4</tspan><tspan x="211.4" dy="16.2">斜め前 45°、1.5m</tspan><tspan x="211.4" dy="16.2">顔より少し上</tspan></text>
<g transform="translate(422.8,581.8) rotate(-109.9) scale(1.0)"><path d="M-10,-40 Q28,0 -10,40" fill="#fdfdfd" stroke="#333333" stroke-width="1.4"/><line x1="-10" y1="0" x2="-30" y2="0" stroke="#333333" stroke-width="1.4"/><circle cx="-30" cy="0" r="8" fill="#555" stroke="#333333" stroke-width="1"/><path d="M-6,-30 Q20,0 -6,30" fill="none" stroke="#f2a900" stroke-width="2"/></g>
<circle cx="437.1" cy="621.3" r="10" fill="#333333"/>
<text x="437.1" y="625.8" font-family="'Noto Sans JP','Noto Sans CJK JP','Hiragino Sans','Yu Gothic','Meiryo',sans-serif" font-size="12" text-anchor="middle" fill="#fff" font-weight="bold"><tspan x="437.1" dy="0">B</tspan></text>
<text x="462.8" y="551.8" font-family="'Noto Sans JP','Noto Sans CJK JP','Hiragino Sans','Yu Gothic','Meiryo',sans-serif" font-size="12" text-anchor="start" fill="#333333" font-weight="normal"><tspan x="462.8" dy="0">フィル 1/8</tspan><tspan x="462.8" dy="16.2">カメラのすぐ横、2m</tspan><tspan x="462.8" dy="16.2">顔の高さ</tspan></text>
<g transform="translate(503.1,219.9) rotate(135.0) scale(1.0)"><circle cx="-10" cy="0" r="9" fill="#555" stroke="#333333" stroke-width="1"/><path d="M-2,-8 L14,-16 L14,16 L-2,8 Z" fill="#e0e0e0" stroke="#333333" stroke-width="1.4"/><line x1="14" y1="-16" x2="14" y2="16" stroke="#f2a900" stroke-width="3"/><line x1="8" y1="-12" x2="14" y2="-12" stroke="#333333" stroke-width="1"/><line x1="8" y1="-6" x2="14" y2="-6" stroke="#333333" stroke-width="1"/><line x1="8" y1="0" x2="14" y2="0" stroke="#333333" stroke-width="1"/><line x1="8" y1="6" x2="14" y2="6" stroke="#333333" stroke-width="1"/><line x1="8" y1="12" x2="14" y2="12" stroke="#333333" stroke-width="1"/></g>
<circle cx="532.8" cy="190.2" r="10" fill="#333333"/>
<text x="532.8" y="194.7" font-family="'Noto Sans JP','Noto Sans CJK JP','Hiragino Sans','Yu Gothic','Meiryo',sans-serif" font-size="12" text-anchor="middle" fill="#fff" font-weight="bold"><tspan x="532.8" dy="0">C</tspan></text>
<text x="555.1" y="215.9" font-family="'Noto Sans JP','Noto Sans CJK JP','Hiragino Sans','Yu Gothic','Meiryo',sans-serif" font-size="12" text-anchor="start" fill="#333333" font-weight="normal"><tspan x="555.1" dy="0">リム 1/16</tspan><tspan x="555.1" dy="16.2">斜め後ろ 45°、2m</tspan><tspan x="555.1" dy="16.2">高さ 2m から見下ろす</tspan></text>
<g transform="translate(348.0,595.0) rotate(-90.0)"><rect x="-14" y="-11" width="20" height="22" rx="3" fill="#3c3c3c"/><rect x="6" y="-7" width="14" height="14" fill="#666" stroke="#333333" stroke-width="1"/><circle cx="20" cy="0" r="5" fill="#9ec5e8" stroke="#333333" stroke-width="1"/></g>
<text x="328.0" y="629.0" font-family="'Noto Sans JP','Noto Sans CJK JP','Hiragino Sans','Yu Gothic','Meiryo',sans-serif" font-size="12" text-anchor="end" fill="#333333" font-weight="normal"><tspan x="328.0" dy="0">カメラ（RF 50mm、約 2m）</tspan></text>
<g transform="translate(40.0,730.0)"><g transform="rotate(90) scale(0.5)"><ellipse cx="0" cy="0" rx="14" ry="27" fill="#a9b8cf" stroke="#333333" stroke-width="2"/><circle cx="3" cy="0" r="11" fill="#f1d9c2" stroke="#333333" stroke-width="2"/></g></g>
<text x="70.0" y="734.0" font-family="'Noto Sans JP','Noto Sans CJK JP','Hiragino Sans','Yu Gothic','Meiryo',sans-serif" font-size="11" text-anchor="start" fill="#7a7a7a" font-weight="normal"><tspan x="70.0" dy="0">被写体</tspan></text>
<g transform="translate(129.0,730.0)"><g transform="rotate(-90) scale(0.42)"><rect x="-6" y="-33" width="30" height="66" fill="#f7f7f7" stroke="#333333" stroke-width="2"/><rect x="22" y="-33" width="5" height="66" fill="#f2a900"/></g></g>
<text x="159.0" y="734.0" font-family="'Noto Sans JP','Noto Sans CJK JP','Hiragino Sans','Yu Gothic','Meiryo',sans-serif" font-size="11" text-anchor="start" fill="#7a7a7a" font-weight="normal"><tspan x="159.0" dy="0">ソフトボックス</tspan></text>
<g transform="translate(262.0,730.0)"><g transform="rotate(-90) scale(0.42)"><path d="M-10,-40 Q28,0 -10,40" fill="#fdfdfd" stroke="#333333" stroke-width="2.5"/><line x1="-10" y1="0" x2="-30" y2="0" stroke="#333333" stroke-width="2.5"/></g></g>
<text x="292.0" y="734.0" font-family="'Noto Sans JP','Noto Sans CJK JP','Hiragino Sans','Yu Gothic','Meiryo',sans-serif" font-size="11" text-anchor="start" fill="#7a7a7a" font-weight="normal"><tspan x="292.0" dy="0">透過アンブレラ</tspan></text>
<g transform="translate(40.0,754.0)"><g transform="rotate(-90) scale(0.588)"><circle cx="-10" cy="0" r="9" fill="#555"/><path d="M-2,-8 L14,-16 L14,16 L-2,8 Z" fill="#e0e0e0" stroke="#333333" stroke-width="1.6"/><line x1="8" y1="-12" x2="14" y2="-12" stroke="#333333" stroke-width="2"/><line x1="8" y1="-6" x2="14" y2="-6" stroke="#333333" stroke-width="2"/><line x1="8" y1="0" x2="14" y2="0" stroke="#333333" stroke-width="2"/><line x1="8" y1="6" x2="14" y2="6" stroke="#333333" stroke-width="2"/><line x1="8" y1="12" x2="14" y2="12" stroke="#333333" stroke-width="2"/></g></g>
<text x="70.0" y="758.0" font-family="'Noto Sans JP','Noto Sans CJK JP','Hiragino Sans','Yu Gothic','Meiryo',sans-serif" font-size="11" text-anchor="start" fill="#7a7a7a" font-weight="normal"><tspan x="70.0" dy="0">リフレクター＋グリッド</tspan></text>
<g transform="translate(217.0,754.0)"><g transform="rotate(-90) scale(0.55)"><rect x="-14" y="-11" width="20" height="22" rx="3" fill="#3c3c3c"/><rect x="6" y="-7" width="14" height="14" fill="#666"/></g></g>
<text x="247.0" y="758.0" font-family="'Noto Sans JP','Noto Sans CJK JP','Hiragino Sans','Yu Gothic','Meiryo',sans-serif" font-size="11" text-anchor="start" fill="#7a7a7a" font-weight="normal"><tspan x="247.0" dy="0">カメラ</tspan></text>
<line x1="546" y1="730" x2="656" y2="730" stroke="#333333" stroke-width="1.5"/>
<line x1="546" y1="726" x2="546" y2="734" stroke="#333333" stroke-width="1.5"/>
<line x1="656" y1="726" x2="656" y2="734" stroke="#333333" stroke-width="1.5"/>
<text x="601.0" y="746.0" font-family="'Noto Sans JP','Noto Sans CJK JP','Hiragino Sans','Yu Gothic','Meiryo',sans-serif" font-size="11" text-anchor="middle" fill="#7a7a7a" font-weight="normal"><tspan x="601.0" dy="0">1m</tspan></text>
</svg>
