<svg xmlns="http://www.w3.org/2000/svg" viewBox="0 0 608 464" width="608" height="464" role="img" aria-label="マグカップの物撮り（第 10 章）">
<defs><marker id="arrow" viewBox="0 0 10 10" refX="9" refY="5" markerWidth="8" markerHeight="8" orient="auto-start-reverse"><path d="M0,0 L10,5 L0,10 Z" fill="#7a7a7a"/></marker><linearGradient id="glow" x1="0" y1="0" x2="0" y2="1"><stop offset="0" stop-color="#f2a900" stop-opacity="0.35"/><stop offset="1" stop-color="#f2a900" stop-opacity="0"/></linearGradient><clipPath id="floor"><rect x="40" y="74" width="528.0" height="290.0"/></clipPath></defs>
<rect x="0.5" y="0.5" width="607" height="463" rx="8" fill="#ffffff" stroke="#d9d9d9"/>
<rect x="40.0" y="100.0" width="528.0" height="264.0" fill="#fbfaf7"/>
<text x="40.0" y="30.0" font-family="'Noto Sans JP','Noto Sans CJK JP','Hiragino Sans','Yu Gothic','Meiryo',sans-serif" font-size="16" text-anchor="start" fill="#333333" font-weight="bold"><tspan x="40.0" dy="0">マグカップの物撮り（第 10 章）</tspan></text>
<text x="40.0" y="52.0" font-family="'Noto Sans JP','Noto Sans CJK JP','Hiragino Sans','Yu Gothic','Meiryo',sans-serif" font-size="12" text-anchor="start" fill="#7a7a7a" font-weight="normal"><tspan x="40.0" dy="0">上から見た配置。ソフトボックスは上後方 45 度の高さにあり、水平位置だけを示す</tspan></text>
<rect x="249.0" y="82.0" width="110.0" height="18" fill="#f4f2ee" stroke="#333333" stroke-width="1"/>
<circle cx="249.0" cy="91.0" r="7" fill="#d9d4cc" stroke="#333333" stroke-width="1"/>
<circle cx="359.0" cy="91.0" r="7" fill="#d9d4cc" stroke="#333333" stroke-width="1"/>
<path d="M249.0,100.0 L249.0,243.0 L359.0,243.0 L359.0,100.0 Z" fill="#f4f2ee" opacity="0.35" stroke="#333333" stroke-width="0.8" stroke-dasharray="4 3"/>
<text x="304.0" y="74.0" font-family="'Noto Sans JP','Noto Sans CJK JP','Hiragino Sans','Yu Gothic','Meiryo',sans-serif" font-size="12" text-anchor="middle" fill="#333333" font-weight="normal"><tspan x="304.0" dy="0">白い背景紙のスイープ（幅 1m、壁からテーブルへ）</tspan></text>
<path clip-path="url(#floor)" d="M304.0,124.2 L361.6,197.9 A93.5,93.5 0 0,1 246.4,197.9 Z" fill="#f2a900" opacity="0.16"/>
<line x1="304.0" y1="124.2" x2="304.0" y2="199.0" stroke="#f2a900" stroke-width="1" stroke-dasharray="3 4" opacity="0.7"/>
<g transform="translate(304.0,243.0) rotate(0)"><rect x="-22.0" y="-3.5" width="44.0" height="7" fill="#ffffff" stroke="#333333" stroke-width="1.4"/></g>
<text x="340.0" y="247.0" font-family="'Noto Sans JP','Noto Sans CJK JP','Hiragino Sans','Yu Gothic','Meiryo',sans-serif" font-size="12" text-anchor="start" fill="#333333" font-weight="normal"><tspan x="340.0" dy="0">白レフ（レンズの下、40cm）</tspan></text>
<g transform="translate(260.0,199.0) rotate(90)"><rect x="-22.0" y="-3.5" width="44.0" height="7" fill="#222222" stroke="#222222" stroke-width="1.4"/></g>
<text x="238.0" y="195.0" font-family="'Noto Sans JP','Noto Sans CJK JP','Hiragino Sans','Yu Gothic','Meiryo',sans-serif" font-size="12" text-anchor="end" fill="#333333" font-weight="normal"><tspan x="238.0" dy="0">黒レフ</tspan><tspan x="238.0" dy="16.2">（左の縁の映り込み用）</tspan></text>
<line x1="249.0" y1="265.0" x2="249.0" y2="199.0" stroke="#b3541e" stroke-width="1" stroke-dasharray="5 3"/>
<line x1="244.0" y1="265.0" x2="254.0" y2="265.0" stroke="#b3541e" stroke-width="1.2"/>
<line x1="244.0" y1="199.0" x2="254.0" y2="199.0" stroke="#b3541e" stroke-width="1.2"/>
<text x="261.0" y="236.0" font-family="'Noto Sans JP','Noto Sans CJK JP','Hiragino Sans','Yu Gothic','Meiryo',sans-serif" font-size="12" text-anchor="middle" fill="#b3541e" font-weight="normal"><tspan x="261.0" dy="0">60cm</tspan></text>
<line x1="353.5" y1="124.2" x2="353.5" y2="199.0" stroke="#b3541e" stroke-width="1" stroke-dasharray="5 3"/>
<line x1="358.5" y1="124.2" x2="348.5" y2="124.2" stroke="#b3541e" stroke-width="1.2"/>
<line x1="358.5" y1="199.0" x2="348.5" y2="199.0" stroke="#b3541e" stroke-width="1.2"/>
<text x="341.5" y="165.6" font-family="'Noto Sans JP','Noto Sans CJK JP','Hiragino Sans','Yu Gothic','Meiryo',sans-serif" font-size="12" text-anchor="middle" fill="#b3541e" font-weight="normal"><tspan x="341.5" dy="0">水平 0.7m</tspan></text>
<circle cx="304.0" cy="199.0" r="11" fill="#fafafa" stroke="#333333" stroke-width="1.4"/>
<path d="M315.0,194.0 a7,7 0 1,1 0,10" fill="none" stroke="#333333" stroke-width="1.6"/>
<text x="344.0" y="203.0" font-family="'Noto Sans JP','Noto Sans CJK JP','Hiragino Sans','Yu Gothic','Meiryo',sans-serif" font-size="12" text-anchor="start" fill="#333333" font-weight="normal"><tspan x="344.0" dy="0">マグカップ（取っ手は右）</tspan></text>
<g transform="translate(304.0,124.2) rotate(90.0) scale(1.0)"><rect x="-6" y="-33" width="30" height="66" fill="#f7f7f7" stroke="#333333" stroke-width="1.4"/><line x1="-6" y1="-33" x2="24" y2="0" stroke="#7a7a7a" stroke-width="0.8"/><line x1="-6" y1="33" x2="24" y2="0" stroke="#7a7a7a" stroke-width="0.8"/><rect x="22" y="-33" width="5" height="66" fill="#f2a900" stroke="#333333" stroke-width="1"/><circle cx="-12" cy="0" r="8" fill="#555" stroke="#333333" stroke-width="1"/></g>
<circle cx="304.0" cy="82.2" r="10" fill="#333333"/>
<text x="304.0" y="86.7" font-family="'Noto Sans JP','Noto Sans CJK JP','Hiragino Sans','Yu Gothic','Meiryo',sans-serif" font-size="12" text-anchor="middle" fill="#fff" font-weight="bold"><tspan x="304.0" dy="0">A</tspan></text>
<text x="214.0" y="118.2" font-family="'Noto Sans JP','Noto Sans CJK JP','Hiragino Sans','Yu Gothic','Meiryo',sans-serif" font-size="12" text-anchor="end" fill="#333333" font-weight="normal"><tspan x="214.0" dy="0">キー 1/4</tspan><tspan x="214.0" dy="16.2">上後方 45 度、1m</tspan><tspan x="214.0" dy="16.2">上面が f/11</tspan></text>
<g transform="translate(304.0,265.0) rotate(-90.0)"><rect x="-14" y="-11" width="20" height="22" rx="3" fill="#3c3c3c"/><rect x="6" y="-7" width="14" height="14" fill="#666" stroke="#333333" stroke-width="1"/><circle cx="20" cy="0" r="5" fill="#9ec5e8" stroke="#333333" stroke-width="1"/></g>
<circle cx="304.0" cy="265.0" r="22" fill="none" stroke="#7a7a7a" stroke-width="1" stroke-dasharray="2 3"/>
<text x="304.0" y="307.0" font-family="'Noto Sans JP','Noto Sans CJK JP','Hiragino Sans','Yu Gothic','Meiryo',sans-serif" font-size="12" text-anchor="middle" fill="#333333" font-weight="normal"><tspan x="304.0" dy="0">カメラ（三脚、RF 50mm、60cm、20 度見下ろし）</tspan></text>
<g transform="translate(40.0,400.0)"><rect x="-12" y="-3" width="24" height="6" fill="#fff" stroke="#333333" stroke-width="1.4"/></g>
<text x="70.0" y="404.0" font-family="'Noto Sans JP','Noto Sans CJK JP','Hiragino Sans','Yu Gothic','Meiryo',sans-serif" font-size="11" text-anchor="start" fill="#7a7a7a" font-weight="normal"><tspan x="70.0" dy="0">白レフ</tspan></text>
<g transform="translate(129.0,400.0)"><rect x="-12" y="-3" width="24" height="6" fill="#222"/></g>
<text x="159.0" y="404.0" font-family="'Noto Sans JP','Noto Sans CJK JP','Hiragino Sans','Yu Gothic','Meiryo',sans-serif" font-size="11" text-anchor="start" fill="#7a7a7a" font-weight="normal"><tspan x="159.0" dy="0">黒レフ</tspan></text>
<g transform="translate(218.0,400.0)"><circle cx="0" cy="0" r="7" fill="#fafafa" stroke="#333333" stroke-width="1.4"/></g>
<text x="248.0" y="404.0" font-family="'Noto Sans JP','Noto Sans CJK JP','Hiragino Sans','Yu Gothic','Meiryo',sans-serif" font-size="11" text-anchor="start" fill="#7a7a7a" font-weight="normal"><tspan x="248.0" dy="0">被写体（マグカップ）</tspan></text>
<g transform="translate(40.0,424.0)"><g transform="rotate(-90) scale(0.42)"><rect x="-6" y="-33" width="30" height="66" fill="#f7f7f7" stroke="#333333" stroke-width="2"/><rect x="22" y="-33" width="5" height="66" fill="#f2a900"/></g></g>
<text x="70.0" y="428.0" font-family="'Noto Sans JP','Noto Sans CJK JP','Hiragino Sans','Yu Gothic','Meiryo',sans-serif" font-size="11" text-anchor="start" fill="#7a7a7a" font-weight="normal"><tspan x="70.0" dy="0">ソフトボックス</tspan></text>
<g transform="translate(173.0,424.0)"><g transform="rotate(-90) scale(0.55)"><rect x="-14" y="-11" width="20" height="22" rx="3" fill="#3c3c3c"/><rect x="6" y="-7" width="14" height="14" fill="#666"/></g></g>
<text x="203.0" y="428.0" font-family="'Noto Sans JP','Noto Sans CJK JP','Hiragino Sans','Yu Gothic','Meiryo',sans-serif" font-size="11" text-anchor="start" fill="#7a7a7a" font-weight="normal"><tspan x="203.0" dy="0">カメラ</tspan></text>
<line x1="458" y1="400" x2="568" y2="400" stroke="#333333" stroke-width="1.5"/>
<line x1="458" y1="396" x2="458" y2="404" stroke="#333333" stroke-width="1.5"/>
<line x1="568" y1="396" x2="568" y2="404" stroke="#333333" stroke-width="1.5"/>
<text x="513.0" y="416.0" font-family="'Noto Sans JP','Noto Sans CJK JP','Hiragino Sans','Yu Gothic','Meiryo',sans-serif" font-size="11" text-anchor="middle" fill="#7a7a7a" font-weight="normal"><tspan x="513.0" dy="0">1m</tspan></text>
</svg>
