<svg xmlns="http://www.w3.org/2000/svg" viewBox="0 0 800 440" width="800" height="440" role="img" aria-label="白ホリの断面と全身撮影の配置">
<defs><marker id="arrow" viewBox="0 0 10 10" refX="9" refY="5" markerWidth="8" markerHeight="8" orient="auto-start-reverse"><path d="M0,0 L10,5 L0,10 Z" fill="#7a7a7a"/></marker><marker id="arrow-ink" viewBox="0 0 10 10" refX="9" refY="5" markerWidth="8" markerHeight="8" orient="auto-start-reverse"><path d="M0,0 L10,5 L0,10 Z" fill="#333333"/></marker><marker id="arrow-light" viewBox="0 0 10 10" refX="9" refY="5" markerWidth="8" markerHeight="8" orient="auto-start-reverse"><path d="M0,0 L10,5 L0,10 Z" fill="#f2a900"/></marker><marker id="arrow-brown" viewBox="0 0 10 10" refX="9" refY="5" markerWidth="8" markerHeight="8" orient="auto-start-reverse"><path d="M0,0 L10,5 L0,10 Z" fill="#b3541e"/></marker><filter id="blur" x="-30%" y="-30%" width="160%" height="160%"><feGaussianBlur stdDeviation="4"/></filter></defs>
<rect x="0.5" y="0.5" width="799" height="439" rx="8" fill="#ffffff" stroke="#d9d9d9"/>
<text x="24.0" y="30.0" font-family="'Noto Sans JP','Noto Sans CJK JP','Hiragino Sans','Yu Gothic','Meiryo',sans-serif" font-size="16" text-anchor="start" fill="#333333" font-weight="bold"><tspan x="24.0" dy="0">白ホリの断面と全身撮影の配置</tspan></text>
<text x="24.0" y="50.0" font-family="'Noto Sans JP','Noto Sans CJK JP','Hiragino Sans','Yu Gothic','Meiryo',sans-serif" font-size="12" text-anchor="start" fill="#7a7a7a" font-weight="normal"><tspan x="24.0" dy="0">横から見た図。壁と床は R 面でつながり、境界線が写らない</tspan></text>
<rect x="30" y="77.0" width="730" height="323.0" fill="#fbfaf7"/>
<path d="M70,87.0 L70,290 A70,70 0 0,0 140,360 L776,360" fill="none" stroke="#333333" stroke-width="2"/>
<path d="M56,87.0 L56,374 L776,374" fill="none" stroke="#333333" stroke-width="1" opacity="0.5"/>
<rect x="56" y="87.0" width="14" height="203.0" fill="#e6e1d8"/>
<path d="M56,290 A84,84 0 0,0 140,374 L56,374 Z" fill="#e6e1d8"/>
<rect x="140" y="360" width="636" height="14" fill="#e6e1d8"/>
<rect x="70" y="110.39999999999998" width="10" height="179.60000000000002" fill="#f2a900" opacity="0.35"/>
<defs><linearGradient id="floorglow" x1="0" y1="0" x2="1" y2="0"><stop offset="0" stop-color="#f2a900" stop-opacity="0.4"/><stop offset="1" stop-color="#f2a900" stop-opacity="0"/></linearGradient></defs>
<rect x="140" y="352" width="132.8" height="8" fill="url(#floorglow)"/>
<line x1="187.0" y1="266.4" x2="187.0" y2="360" stroke="#555555" stroke-width="2"/>
<path d="M171.0,360 L203.0,360" stroke="#555555" stroke-width="2"/>
<path d="M187.0,266.4 L70,102.60000000000002 L70,336.6 Z" fill="#f2a900" opacity="0.16"/>
<g transform="translate(187.0,266.4) rotate(-151.9)"><circle cx="-10" cy="0" r="9" fill="#555555"/><path d="M-2,-8 L14,-16 L14,16 L-2,8 Z" fill="#e0e0e0" stroke="#333333" stroke-width="1.2"/><line x1="14" y1="-16" x2="14" y2="16" stroke="#f2a900" stroke-width="3"/></g>
<circle cx="209.0" cy="246.4" r="10" fill="#333333"/><text x="209.0" y="250.9" font-family="'Noto Sans JP','Noto Sans CJK JP','Hiragino Sans','Yu Gothic','Meiryo',sans-serif" font-size="12" text-anchor="middle" fill="#fff" font-weight="bold"><tspan x="209.0" dy="0">2</tspan></text>
<ellipse cx="247.0" cy="357" rx="26" ry="6" fill="#1e1a17" opacity="0.25"/>
<rect x="249.0" y="289.8" width="32" height="70.2" fill="#5c6b80" stroke="#333333" stroke-width="1"/>
<path d="M241.0,246.9 C241.0,243.0 259.0,243.0 265.0,243.0 C271.0,243.0 289.0,243.0 289.0,246.9 L287.0,289.8 L243.0,289.8 Z" fill="#a9b8cf" stroke="#333333" stroke-width="1"/>
<circle cx="265.0" cy="236.76" r="9.36" fill="#f1d9c2" stroke="#333333" stroke-width="1"/>
<path d="M255.64,235.2 A9.36,9.36 0 0,1 274.36,235.2 Z" fill="#3b2f2a"/>
<circle cx="231.0" cy="223.5" r="10" fill="#333333"/><text x="231.0" y="228.0" font-family="'Noto Sans JP','Noto Sans CJK JP','Hiragino Sans','Yu Gothic','Meiryo',sans-serif" font-size="12" text-anchor="middle" fill="#fff" font-weight="bold"><tspan x="231.0" dy="0">3</tspan></text>
<line x1="382.0" y1="254.7" x2="382.0" y2="360" stroke="#555555" stroke-width="2"/>
<path d="M366.0,360 L398.0,360" stroke="#555555" stroke-width="2"/>
<path d="M382.0,254.7 L235.0,211.8 L235.0,360.0 Z" fill="#f2a900" opacity="0.14"/>
<g transform="translate(382.0,254.7) rotate(174.3)"><rect x="-6" y="-38" width="26" height="76" fill="#f7f7f7" stroke="#333333" stroke-width="1.2"/><rect x="18" y="-38" width="5" height="76" fill="#f2a900"/><circle cx="-12" cy="0" r="8" fill="#555555"/></g>
<circle cx="408.0" cy="210.7" r="10" fill="#333333"/><text x="408.0" y="215.2" font-family="'Noto Sans JP','Noto Sans CJK JP','Hiragino Sans','Yu Gothic','Meiryo',sans-serif" font-size="12" text-anchor="middle" fill="#fff" font-weight="bold"><tspan x="408.0" dy="0">4</tspan></text>
<rect x="305.0" y="243.0" width="6" height="70.2" fill="#fff" stroke="#333333" stroke-width="1.2"/>
<circle cx="325.0" cy="239.1" r="10" fill="#333333"/><text x="325.0" y="243.6" font-family="'Noto Sans JP','Noto Sans CJK JP','Hiragino Sans','Yu Gothic','Meiryo',sans-serif" font-size="12" text-anchor="middle" fill="#fff" font-weight="bold"><tspan x="325.0" dy="0">5</tspan></text>
<path d="M508.4,360 L522.4,276.4 L536.4,360 M522.4,276.4 L522.4,360" fill="none" stroke="#555555" stroke-width="1.5"/>
<rect x="510.4" y="256.4" width="24" height="20" rx="3" fill="#3c3c3c"/>
<rect x="496.4" y="260.4" width="14" height="12" fill="#666" stroke="#333333" stroke-width="1"/>
<line x1="496.4" y1="266.4" x2="285.0" y2="266.4" stroke="#2f6db5" stroke-width="1" stroke-dasharray="4 3"/>
<circle cx="526.4" cy="240.4" r="10" fill="#333333"/><text x="526.4" y="244.9" font-family="'Noto Sans JP','Noto Sans CJK JP','Hiragino Sans','Yu Gothic','Meiryo',sans-serif" font-size="12" text-anchor="middle" fill="#fff" font-weight="bold"><tspan x="526.4" dy="0">6</tspan></text>
<circle cx="100.0" cy="330.0" r="10" fill="#333333"/><text x="100.0" y="334.5" font-family="'Noto Sans JP','Noto Sans CJK JP','Hiragino Sans','Yu Gothic','Meiryo',sans-serif" font-size="12" text-anchor="middle" fill="#fff" font-weight="bold"><tspan x="100.0" dy="0">1</tspan></text>
<circle cx="218.2" cy="394.0" r="10" fill="#333333"/><text x="218.2" y="398.5" font-family="'Noto Sans JP','Noto Sans CJK JP','Hiragino Sans','Yu Gothic','Meiryo',sans-serif" font-size="12" text-anchor="middle" fill="#fff" font-weight="bold"><tspan x="218.2" dy="0">7</tspan></text>
<line x1="70" y1="400" x2="187.0" y2="400" stroke="#b3541e" stroke-width="1" stroke-dasharray="5 3"/><line x1="70" y1="395" x2="70" y2="405" stroke="#b3541e" stroke-width="1.2"/><line x1="187.0" y1="395" x2="187.0" y2="405" stroke="#b3541e" stroke-width="1.2"/><text x="128.5" y="394.0" font-family="'Noto Sans JP','Noto Sans CJK JP','Hiragino Sans','Yu Gothic','Meiryo',sans-serif" font-size="11" text-anchor="middle" fill="#b3541e" font-weight="normal"><tspan x="128.5" dy="0">1.5m</tspan></text>
<line x1="70" y1="422" x2="265.0" y2="422" stroke="#b3541e" stroke-width="1" stroke-dasharray="5 3"/><line x1="70" y1="417" x2="70" y2="427" stroke="#b3541e" stroke-width="1.2"/><line x1="265.0" y1="417" x2="265.0" y2="427" stroke="#b3541e" stroke-width="1.2"/><text x="167.5" y="416.0" font-family="'Noto Sans JP','Noto Sans CJK JP','Hiragino Sans','Yu Gothic','Meiryo',sans-serif" font-size="11" text-anchor="middle" fill="#b3541e" font-weight="normal"><tspan x="167.5" dy="0">2.5m</tspan></text>
<line x1="265.0" y1="400" x2="522.4" y2="400" stroke="#b3541e" stroke-width="1" stroke-dasharray="5 3"/><line x1="265.0" y1="395" x2="265.0" y2="405" stroke="#b3541e" stroke-width="1.2"/><line x1="522.4" y1="395" x2="522.4" y2="405" stroke="#b3541e" stroke-width="1.2"/><text x="393.7" y="394.0" font-family="'Noto Sans JP','Noto Sans CJK JP','Hiragino Sans','Yu Gothic','Meiryo',sans-serif" font-size="11" text-anchor="middle" fill="#b3541e" font-weight="normal"><tspan x="393.7" dy="0">3.3m</tspan></text>
<circle cx="470.0" cy="80.0" r="8" fill="#333333"/><text x="470.0" y="84.5" font-family="'Noto Sans JP','Noto Sans CJK JP','Hiragino Sans','Yu Gothic','Meiryo',sans-serif" font-size="12" text-anchor="middle" fill="#fff" font-weight="bold"><tspan x="470.0" dy="0">1</tspan></text>
<text x="484.0" y="84.0" font-family="'Noto Sans JP','Noto Sans CJK JP','Hiragino Sans','Yu Gothic','Meiryo',sans-serif" font-size="11" text-anchor="start" fill="#333333" font-weight="normal"><tspan x="484.0" dy="0">R 面。踏まない</tspan></text>
<circle cx="470.0" cy="100.0" r="8" fill="#333333"/><text x="470.0" y="104.5" font-family="'Noto Sans JP','Noto Sans CJK JP','Hiragino Sans','Yu Gothic','Meiryo',sans-serif" font-size="12" text-anchor="middle" fill="#fff" font-weight="bold"><tspan x="470.0" dy="0">2</tspan></text>
<text x="484.0" y="104.0" font-family="'Noto Sans JP','Noto Sans CJK JP','Hiragino Sans','Yu Gothic','Meiryo',sans-serif" font-size="11" text-anchor="start" fill="#333333" font-weight="normal"><tspan x="484.0" dy="0">背景ライト（壁から 1.5m、壁へ向けて 1/16）</tspan></text>
<circle cx="470.0" cy="120.0" r="8" fill="#333333"/><text x="470.0" y="124.5" font-family="'Noto Sans JP','Noto Sans CJK JP','Hiragino Sans','Yu Gothic','Meiryo',sans-serif" font-size="12" text-anchor="middle" fill="#fff" font-weight="bold"><tspan x="470.0" dy="0">3</tspan></text>
<text x="484.0" y="124.0" font-family="'Noto Sans JP','Noto Sans CJK JP','Hiragino Sans','Yu Gothic','Meiryo',sans-serif" font-size="11" text-anchor="start" fill="#333333" font-weight="normal"><tspan x="484.0" dy="0">被写体（壁から 2.5m）</tspan></text>
<circle cx="470.0" cy="140.0" r="8" fill="#333333"/><text x="470.0" y="144.5" font-family="'Noto Sans JP','Noto Sans CJK JP','Hiragino Sans','Yu Gothic','Meiryo',sans-serif" font-size="12" text-anchor="middle" fill="#fff" font-weight="bold"><tspan x="470.0" dy="0">4</tspan></text>
<text x="484.0" y="144.0" font-family="'Noto Sans JP','Noto Sans CJK JP','Hiragino Sans','Yu Gothic','Meiryo',sans-serif" font-size="11" text-anchor="start" fill="#333333" font-weight="normal"><tspan x="484.0" dy="0">キーライト（2.1m、中心は胸の高さ、1/2）</tspan></text>
<circle cx="470.0" cy="160.0" r="8" fill="#333333"/><text x="470.0" y="164.5" font-family="'Noto Sans JP','Noto Sans CJK JP','Hiragino Sans','Yu Gothic','Meiryo',sans-serif" font-size="12" text-anchor="middle" fill="#fff" font-weight="bold"><tspan x="470.0" dy="0">5</tspan></text>
<text x="484.0" y="164.0" font-family="'Noto Sans JP','Noto Sans CJK JP','Hiragino Sans','Yu Gothic','Meiryo',sans-serif" font-size="11" text-anchor="start" fill="#333333" font-weight="normal"><tspan x="484.0" dy="0">白レフ（1m）</tspan></text>
<circle cx="470.0" cy="180.0" r="8" fill="#333333"/><text x="470.0" y="184.5" font-family="'Noto Sans JP','Noto Sans CJK JP','Hiragino Sans','Yu Gothic','Meiryo',sans-serif" font-size="12" text-anchor="middle" fill="#fff" font-weight="bold"><tspan x="470.0" dy="0">6</tspan></text>
<text x="484.0" y="184.0" font-family="'Noto Sans JP','Noto Sans CJK JP','Hiragino Sans','Yu Gothic','Meiryo',sans-serif" font-size="11" text-anchor="start" fill="#333333" font-weight="normal"><tspan x="484.0" dy="0">カメラ（3.3m、胸の高さで水平）</tspan></text>
<circle cx="470.0" cy="200.0" r="8" fill="#333333"/><text x="470.0" y="204.5" font-family="'Noto Sans JP','Noto Sans CJK JP','Hiragino Sans','Yu Gothic','Meiryo',sans-serif" font-size="12" text-anchor="middle" fill="#fff" font-weight="bold"><tspan x="470.0" dy="0">7</tspan></text>
<text x="484.0" y="204.0" font-family="'Noto Sans JP','Noto Sans CJK JP','Hiragino Sans','Yu Gothic','Meiryo',sans-serif" font-size="11" text-anchor="start" fill="#333333" font-weight="normal"><tspan x="484.0" dy="0">床の反射。壁に近いほど白く、離れると灰色</tspan></text>
<text x="76.0" y="73.0" font-family="'Noto Sans JP','Noto Sans CJK JP','Hiragino Sans','Yu Gothic','Meiryo',sans-serif" font-size="11" text-anchor="start" fill="#7a7a7a" font-weight="normal"><tspan x="76.0" dy="0">壁</tspan></text>
</svg>
