<svg xmlns="http://www.w3.org/2000/svg" viewBox="0 0 800 400" width="800" height="400" role="img" aria-label="逆二乗則：距離が伸びるほど同じ光が広い面に薄まる">
<defs><marker id="arrow" viewBox="0 0 10 10" refX="9" refY="5" markerWidth="7" markerHeight="7" orient="auto-start-reverse"><path d="M0,0 L10,5 L0,10 Z" fill="#333333"/></marker><marker id="arrow-muted" viewBox="0 0 10 10" refX="9" refY="5" markerWidth="7" markerHeight="7" orient="auto-start-reverse"><path d="M0,0 L10,5 L0,10 Z" fill="#7a7a7a"/></marker><marker id="arrow-blue" viewBox="0 0 10 10" refX="9" refY="5" markerWidth="7" markerHeight="7" orient="auto-start-reverse"><path d="M0,0 L10,5 L0,10 Z" fill="#2f6db5"/></marker><marker id="arrow-light" viewBox="0 0 10 10" refX="9" refY="5" markerWidth="7" markerHeight="7" orient="auto-start-reverse"><path d="M0,0 L10,5 L0,10 Z" fill="#f2a900"/></marker></defs>
<rect x="0.5" y="0.5" width="799" height="399" rx="8" fill="#ffffff" stroke="#d9d9d9"/>
<text x="24" y="30" font-family="'Noto Sans JP','Noto Sans CJK JP','Hiragino Sans','Yu Gothic','Meiryo',sans-serif" font-size="16" font-weight="bold" fill="#333333">逆二乗則：距離が伸びるほど同じ光が広い面に薄まる</text>
<text x="24.0" y="52.0" font-family="'Noto Sans JP','Noto Sans CJK JP','Hiragino Sans','Yu Gothic','Meiryo',sans-serif" font-size="11" text-anchor="start" fill="#7a7a7a" font-weight="normal"><tspan x="24.0" dy="0">光源からの距離が √2 倍になるごとに、光が広がる面積は 2 倍になり、明るさは 1 段ずつ下がる</tspan></text>
<rect x="66" y="190" width="24" height="60" fill="#f7f7f7" stroke="#333333" stroke-width="1.3"/>
<rect x="86" y="190" width="4" height="60" fill="#f2a900"/>
<text x="78.0" y="272.0" font-family="'Noto Sans JP','Noto Sans CJK JP','Hiragino Sans','Yu Gothic','Meiryo',sans-serif" font-size="12" text-anchor="middle" fill="#333333" font-weight="normal"><tspan x="78.0" dy="0">光源</tspan></text>
<path d="M240.0,198.0 L247.7,192.5 L247.7,236.5 L240.0,242.0 Z" fill="#f2a900" opacity="0.55" stroke="#333333" stroke-width="1"/>
<line x1="240.0" y1="198.0" x2="240.0" y2="242.0" stroke="#333333" stroke-width="1.2"/>
<text x="246.0" y="264.0" font-family="'Noto Sans JP','Noto Sans CJK JP','Hiragino Sans','Yu Gothic','Meiryo',sans-serif" font-size="13" text-anchor="middle" fill="#333333" font-weight="bold"><tspan x="246.0" dy="0">1.5m</tspan></text>
<text x="246.0" y="282.0" font-family="'Noto Sans JP','Noto Sans CJK JP','Hiragino Sans','Yu Gothic','Meiryo',sans-serif" font-size="11" text-anchor="middle" fill="#7a7a7a" font-weight="normal"><tspan x="246.0" dy="0">面積 1 倍</tspan></text>
<text x="246.0" y="298.0" font-family="'Noto Sans JP','Noto Sans CJK JP','Hiragino Sans','Yu Gothic','Meiryo',sans-serif" font-size="11" text-anchor="middle" fill="#b3541e" font-weight="normal"><tspan x="246.0" dy="0">±0 段　f/8</tspan></text>
<path d="M300.0,188.98 L310.85699999999997,181.225 L310.85699999999997,243.26500000000001 L300.0,251.02 Z" fill="#f2a900" opacity="0.32" stroke="#333333" stroke-width="1"/>
<line x1="300.0" y1="188.98" x2="300.0" y2="251.02" stroke="#333333" stroke-width="1.2"/>
<text x="306.0" y="273.0" font-family="'Noto Sans JP','Noto Sans CJK JP','Hiragino Sans','Yu Gothic','Meiryo',sans-serif" font-size="13" text-anchor="middle" fill="#333333" font-weight="bold"><tspan x="306.0" dy="0">2.1m</tspan></text>
<text x="306.0" y="291.0" font-family="'Noto Sans JP','Noto Sans CJK JP','Hiragino Sans','Yu Gothic','Meiryo',sans-serif" font-size="11" text-anchor="middle" fill="#7a7a7a" font-weight="normal"><tspan x="306.0" dy="0">面積 2 倍</tspan></text>
<text x="306.0" y="307.0" font-family="'Noto Sans JP','Noto Sans CJK JP','Hiragino Sans','Yu Gothic','Meiryo',sans-serif" font-size="11" text-anchor="middle" fill="#b3541e" font-weight="normal"><tspan x="306.0" dy="0">-1 段　f/5.6</tspan></text>
<path d="M390.0,176.0 L405.4,165.0 L405.4,253.0 L390.0,264.0 Z" fill="#f2a900" opacity="0.18" stroke="#333333" stroke-width="1"/>
<line x1="390.0" y1="176.0" x2="390.0" y2="264.0" stroke="#333333" stroke-width="1.2"/>
<text x="396.0" y="286.0" font-family="'Noto Sans JP','Noto Sans CJK JP','Hiragino Sans','Yu Gothic','Meiryo',sans-serif" font-size="13" text-anchor="middle" fill="#333333" font-weight="bold"><tspan x="396.0" dy="0">3.0m</tspan></text>
<text x="396.0" y="304.0" font-family="'Noto Sans JP','Noto Sans CJK JP','Hiragino Sans','Yu Gothic','Meiryo',sans-serif" font-size="11" text-anchor="middle" fill="#7a7a7a" font-weight="normal"><tspan x="396.0" dy="0">面積 4 倍</tspan></text>
<text x="396.0" y="320.0" font-family="'Noto Sans JP','Noto Sans CJK JP','Hiragino Sans','Yu Gothic','Meiryo',sans-serif" font-size="11" text-anchor="middle" fill="#b3541e" font-weight="normal"><tspan x="396.0" dy="0">-2 段　f/4</tspan></text>
<line x1="90" y1="220" x2="390.0" y2="176.0" stroke="#f2a900" stroke-width="1.4"/>
<line x1="90" y1="220" x2="390.0" y2="264.0" stroke="#f2a900" stroke-width="1.4"/>
<path d="M90,220 L390.0,176.0 L390.0,264.0 Z" fill="#f2a900" opacity="0.10"/>
<line x1="90" y1="130" x2="390.0" y2="130" stroke="#b3541e" stroke-width="1" stroke-dasharray="5 3"/>
<line x1="240.0" y1="125" x2="240.0" y2="135" stroke="#b3541e" stroke-width="1.2"/>
<line x1="300.0" y1="125" x2="300.0" y2="135" stroke="#b3541e" stroke-width="1.2"/>
<line x1="390.0" y1="125" x2="390.0" y2="135" stroke="#b3541e" stroke-width="1.2"/>
<line x1="90" y1="125" x2="90" y2="135" stroke="#b3541e" stroke-width="1.2"/>
<text x="240.0" y="120.0" font-family="'Noto Sans JP','Noto Sans CJK JP','Hiragino Sans','Yu Gothic','Meiryo',sans-serif" font-size="11" text-anchor="middle" fill="#b3541e" font-weight="normal"><tspan x="240.0" dy="0">光源からの距離（√2 倍ごとに 1 段）</tspan></text>
<text x="24.0" y="372.0" font-family="'Noto Sans JP','Noto Sans CJK JP','Hiragino Sans','Yu Gothic','Meiryo',sans-serif" font-size="11" text-anchor="start" fill="#7a7a7a" font-weight="normal"><tspan x="24.0" dy="0">出力 1/4 のソフトボックスなら、1.5m で f/8、2.1m で f/5.6、3m で f/4。位置を決めたら明るさは出力で合わせる</tspan></text>
</svg>
