<svg xmlns="http://www.w3.org/2000/svg" viewBox="0 0 800 600" width="800" height="600" role="img" aria-label="モノブロックストロボの各部（模式図）">
<defs><marker id="arrow" viewBox="0 0 10 10" refX="9" refY="5" markerWidth="7" markerHeight="7" orient="auto-start-reverse"><path d="M0,0 L10,5 L0,10 Z" fill="#333333"/></marker><marker id="arrow-muted" viewBox="0 0 10 10" refX="9" refY="5" markerWidth="7" markerHeight="7" orient="auto-start-reverse"><path d="M0,0 L10,5 L0,10 Z" fill="#7a7a7a"/></marker><marker id="arrow-blue" viewBox="0 0 10 10" refX="9" refY="5" markerWidth="7" markerHeight="7" orient="auto-start-reverse"><path d="M0,0 L10,5 L0,10 Z" fill="#2f6db5"/></marker><marker id="arrow-light" viewBox="0 0 10 10" refX="9" refY="5" markerWidth="7" markerHeight="7" orient="auto-start-reverse"><path d="M0,0 L10,5 L0,10 Z" fill="#f2a900"/></marker></defs>
<rect x="0.5" y="0.5" width="799" height="599" rx="8" fill="#ffffff" stroke="#d9d9d9"/>
<text x="24" y="30" font-family="'Noto Sans JP','Noto Sans CJK JP','Hiragino Sans','Yu Gothic','Meiryo',sans-serif" font-size="16" font-weight="bold" fill="#333333">モノブロックストロボの各部（模式図）</text>
<text x="24.0" y="52.0" font-family="'Noto Sans JP','Noto Sans CJK JP','Hiragino Sans','Yu Gothic','Meiryo',sans-serif" font-size="11" text-anchor="start" fill="#7a7a7a" font-weight="normal"><tspan x="24.0" dy="0">左上は前面（用具を外した状態）、中央は側面（標準リフレクターを付けた状態）、下は背面の操作部</tspan></text>
<text x="60.0" y="74.0" font-family="'Noto Sans JP','Noto Sans CJK JP','Hiragino Sans','Yu Gothic','Meiryo',sans-serif" font-size="12" text-anchor="middle" fill="#7a7a7a" font-weight="normal"><tspan x="60.0" dy="0">前面</tspan></text>
<circle cx="120" cy="170" r="72" fill="#444" stroke="#333333" stroke-width="1.4"/>
<circle cx="120" cy="170" r="60" fill="#e9e9e9" stroke="#333333" stroke-width="1.2"/>
<rect x="-9" y="-72" width="18" height="12" rx="2" fill="#777" stroke="#333333" stroke-width="1" transform="translate(120,170) rotate(180)"/>
<rect x="-9" y="-72" width="18" height="12" rx="2" fill="#777" stroke="#333333" stroke-width="1" transform="translate(120,170) rotate(300)"/>
<rect x="-9" y="-72" width="18" height="12" rx="2" fill="#777" stroke="#333333" stroke-width="1" transform="translate(120,170) rotate(420)"/>
<circle cx="120" cy="170" r="38" fill="none" stroke="#f2a900" stroke-width="7" opacity="0.9"/>
<circle cx="120" cy="170" r="38" fill="none" stroke="#c98a00" stroke-width="1"/>
<circle cx="120" cy="170" r="16" fill="#fff1c2" stroke="#333333" stroke-width="1.2"/>
<circle cx="120" cy="170" r="7" fill="#f7d774" stroke="#333333" stroke-width="0.8"/>
<circle cx="172.0" cy="118.0" r="10" fill="#333333"/>
<text x="172.0" y="122.3" font-family="'Noto Sans JP','Noto Sans CJK JP','Hiragino Sans','Yu Gothic','Meiryo',sans-serif" font-size="12" text-anchor="middle" fill="#fff" font-weight="bold"><tspan x="172.0" dy="0">1</tspan></text>
<line x1="164.0" y1="126.0" x2="147.0" y2="143.0" stroke="#333333" stroke-width="1" />
<circle cx="147.0" cy="143.0" r="2.2" fill="#333333"/>
<circle cx="62.0" cy="232.0" r="10" fill="#333333"/>
<text x="62.0" y="236.3" font-family="'Noto Sans JP','Noto Sans CJK JP','Hiragino Sans','Yu Gothic','Meiryo',sans-serif" font-size="12" text-anchor="middle" fill="#fff" font-weight="bold"><tspan x="62.0" dy="0">2</tspan></text>
<line x1="70.0" y1="224.0" x2="110.0" y2="182.0" stroke="#333333" stroke-width="1" />
<circle cx="110.0" cy="182.0" r="2.2" fill="#333333"/>
<circle cx="128.0" cy="70.0" r="10" fill="#333333"/>
<text x="128.0" y="74.3" font-family="'Noto Sans JP','Noto Sans CJK JP','Hiragino Sans','Yu Gothic','Meiryo',sans-serif" font-size="12" text-anchor="middle" fill="#fff" font-weight="bold"><tspan x="128.0" dy="0">3</tspan></text>
<line x1="128.0" y1="80.0" x2="124.0" y2="94.0" stroke="#333333" stroke-width="1" />
<circle cx="124.0" cy="94.0" r="2.2" fill="#333333"/>
<text x="400.0" y="78.0" font-family="'Noto Sans JP','Noto Sans CJK JP','Hiragino Sans','Yu Gothic','Meiryo',sans-serif" font-size="12" text-anchor="middle" fill="#7a7a7a" font-weight="normal"><tspan x="400.0" dy="0">側面</tspan></text>
<path d="M300,200 C260,200 250,270 270,300" fill="none" stroke="#333333" stroke-width="2.2"/>
<rect x="300" y="160" width="150" height="80" rx="10" fill="#555555" stroke="#333333" stroke-width="1.4"/>
<line x1="320" y1="180" x2="320" y2="220" stroke="#9a9a9a" stroke-width="2"/>
<line x1="328" y1="180" x2="328" y2="220" stroke="#9a9a9a" stroke-width="2"/>
<line x1="336" y1="180" x2="336" y2="220" stroke="#9a9a9a" stroke-width="2"/>
<line x1="344" y1="180" x2="344" y2="220" stroke="#9a9a9a" stroke-width="2"/>
<line x1="352" y1="180" x2="352" y2="220" stroke="#9a9a9a" stroke-width="2"/>
<rect x="418" y="146" width="26" height="14" rx="3" fill="#777" stroke="#333333" stroke-width="1"/>
<circle cx="431" cy="153" r="4" fill="#fff" stroke="#333333" stroke-width="1"/>
<rect x="450" y="156" width="12" height="88" fill="#777" stroke="#333333" stroke-width="1.2"/>
<path d="M462,168 L530,138 L530,262 L462,232 Z" fill="#e0e0e0" stroke="#333333" stroke-width="1.4"/>
<line x1="530" y1="138" x2="530" y2="262" stroke="#f2a900" stroke-width="4"/>
<line x1="536" y1="170" x2="575" y2="154" stroke="#f2a900" stroke-width="1.6" marker-end="url(#arrow-light)"/>
<line x1="536" y1="200" x2="575" y2="200" stroke="#f2a900" stroke-width="1.6" marker-end="url(#arrow-light)"/>
<line x1="536" y1="230" x2="575" y2="246" stroke="#f2a900" stroke-width="1.6" marker-end="url(#arrow-light)"/>
<rect x="360" y="240" width="30" height="16" fill="#777" stroke="#333333" stroke-width="1.2"/>
<circle cx="405" cy="250" r="7" fill="#999" stroke="#333333" stroke-width="1.2"/>
<line x1="405" y1="250" x2="422" y2="250" stroke="#333333" stroke-width="3"/>
<rect x="368" y="256" width="14" height="40" fill="#8a8a8a" stroke="#333333" stroke-width="1.2"/>
<circle cx="360" cy="272" r="5" fill="#999" stroke="#333333" stroke-width="1"/>
<text x="375.0" y="312.0" font-family="'Noto Sans JP','Noto Sans CJK JP','Hiragino Sans','Yu Gothic','Meiryo',sans-serif" font-size="11" text-anchor="middle" fill="#7a7a7a" font-weight="normal"><tspan x="375.0" dy="0">ライトスタンド</tspan></text>
<circle cx="550.0" cy="120.0" r="10" fill="#333333"/>
<text x="550.0" y="124.3" font-family="'Noto Sans JP','Noto Sans CJK JP','Hiragino Sans','Yu Gothic','Meiryo',sans-serif" font-size="12" text-anchor="middle" fill="#fff" font-weight="bold"><tspan x="550.0" dy="0">4</tspan></text>
<line x1="542.0" y1="128.0" x2="515.0" y2="152.0" stroke="#333333" stroke-width="1" />
<circle cx="515.0" cy="152.0" r="2.2" fill="#333333"/>
<circle cx="431.0" cy="120.0" r="10" fill="#333333"/>
<text x="431.0" y="124.3" font-family="'Noto Sans JP','Noto Sans CJK JP','Hiragino Sans','Yu Gothic','Meiryo',sans-serif" font-size="12" text-anchor="middle" fill="#fff" font-weight="bold"><tspan x="431.0" dy="0">5</tspan></text>
<line x1="431.0" y1="130.0" x2="431.0" y2="144.0" stroke="#333333" stroke-width="1" />
<circle cx="431.0" cy="144.0" r="2.2" fill="#333333"/>
<circle cx="450.0" cy="290.0" r="10" fill="#333333"/>
<text x="450.0" y="294.3" font-family="'Noto Sans JP','Noto Sans CJK JP','Hiragino Sans','Yu Gothic','Meiryo',sans-serif" font-size="12" text-anchor="middle" fill="#fff" font-weight="bold"><tspan x="450.0" dy="0">6</tspan></text>
<line x1="440.0" y1="284.0" x2="412.0" y2="252.0" stroke="#333333" stroke-width="1" />
<circle cx="412.0" cy="252.0" r="2.2" fill="#333333"/>
<circle cx="340.0" cy="140.0" r="10" fill="#333333"/>
<text x="340.0" y="144.3" font-family="'Noto Sans JP','Noto Sans CJK JP','Hiragino Sans','Yu Gothic','Meiryo',sans-serif" font-size="12" text-anchor="middle" fill="#fff" font-weight="bold"><tspan x="340.0" dy="0">7</tspan></text>
<line x1="340.0" y1="150.0" x2="340.0" y2="174.0" stroke="#333333" stroke-width="1" />
<circle cx="340.0" cy="174.0" r="2.2" fill="#333333"/>
<circle cx="240.0" cy="260.0" r="10" fill="#333333"/>
<text x="240.0" y="264.3" font-family="'Noto Sans JP','Noto Sans CJK JP','Hiragino Sans','Yu Gothic','Meiryo',sans-serif" font-size="12" text-anchor="middle" fill="#fff" font-weight="bold"><tspan x="240.0" dy="0">8</tspan></text>
<line x1="250.0" y1="260.0" x2="264.0" y2="250.0" stroke="#333333" stroke-width="1" />
<circle cx="264.0" cy="250.0" r="2.2" fill="#333333"/>
<text x="245.0" y="328.0" font-family="'Noto Sans JP','Noto Sans CJK JP','Hiragino Sans','Yu Gothic','Meiryo',sans-serif" font-size="12" text-anchor="middle" fill="#7a7a7a" font-weight="normal"><tspan x="245.0" dy="0">背面（操作部）</tspan></text>
<rect x="80" y="340" width="330" height="200" rx="10" fill="#555555" stroke="#333333" stroke-width="1.4"/>
<rect x="102" y="362" width="150" height="64" rx="4" fill="#dfe9d9" stroke="#333333" stroke-width="1.2"/>
<text x="114.0" y="388.0" font-family="'Noto Sans JP','Noto Sans CJK JP','Hiragino Sans','Yu Gothic','Meiryo',sans-serif" font-size="22" text-anchor="start" fill="#333333" font-weight="bold"><tspan x="114.0" dy="0">1/4</tspan></text>
<text x="172.0" y="384.0" font-family="'Noto Sans JP','Noto Sans CJK JP','Hiragino Sans','Yu Gothic','Meiryo',sans-serif" font-size="11" text-anchor="start" fill="#333333" font-weight="normal"><tspan x="172.0" dy="0">CH 1  GR A</tspan></text>
<text x="172.0" y="402.0" font-family="'Noto Sans JP','Noto Sans CJK JP','Hiragino Sans','Yu Gothic','Meiryo',sans-serif" font-size="11" text-anchor="start" fill="#333333" font-weight="normal"><tspan x="172.0" dy="0">M</tspan></text>
<text x="114.0" y="416.0" font-family="'Noto Sans JP','Noto Sans CJK JP','Hiragino Sans','Yu Gothic','Meiryo',sans-serif" font-size="9" text-anchor="start" fill="#7a7a7a" font-weight="normal"><tspan x="114.0" dy="0">モデリング  ブザー ON</tspan></text>
<circle cx="330" cy="398" r="34" fill="#8a8a8a" stroke="#333333" stroke-width="1.4"/>
<circle cx="330" cy="398" r="26" fill="#a8a8a8" stroke="#333333" stroke-width="1"/>
<line x1="330" y1="398" x2="342" y2="376" stroke="#333333" stroke-width="2.5"/>
<rect x="102" y="444" width="50" height="26" rx="5" fill="#e8b64a" stroke="#333333" stroke-width="1"/>
<text x="127.0" y="461.0" font-family="'Noto Sans JP','Noto Sans CJK JP','Hiragino Sans','Yu Gothic','Meiryo',sans-serif" font-size="9.5" text-anchor="middle" fill="#333333" font-weight="normal"><tspan x="127.0" dy="0">TEST</tspan></text>
<rect x="164" y="444" width="50" height="26" rx="5" fill="#e0e0e0" stroke="#333333" stroke-width="1"/>
<text x="189.0" y="461.0" font-family="'Noto Sans JP','Noto Sans CJK JP','Hiragino Sans','Yu Gothic','Meiryo',sans-serif" font-size="9.5" text-anchor="middle" fill="#333333" font-weight="normal"><tspan x="189.0" dy="0">MODEL</tspan></text>
<rect x="226" y="444" width="50" height="26" rx="5" fill="#e0e0e0" stroke="#333333" stroke-width="1"/>
<text x="251.0" y="461.0" font-family="'Noto Sans JP','Noto Sans CJK JP','Hiragino Sans','Yu Gothic','Meiryo',sans-serif" font-size="9.5" text-anchor="middle" fill="#333333" font-weight="normal"><tspan x="251.0" dy="0">BUZZ</tspan></text>
<rect x="288" y="444" width="50" height="26" rx="5" fill="#e0e0e0" stroke="#333333" stroke-width="1"/>
<text x="313.0" y="461.0" font-family="'Noto Sans JP','Noto Sans CJK JP','Hiragino Sans','Yu Gothic','Meiryo',sans-serif" font-size="9.5" text-anchor="middle" fill="#333333" font-weight="normal"><tspan x="313.0" dy="0">CH/GR</tspan></text>
<rect x="350" y="444" width="50" height="26" rx="5" fill="#e0e0e0" stroke="#333333" stroke-width="1"/>
<text x="375.0" y="461.0" font-family="'Noto Sans JP','Noto Sans CJK JP','Hiragino Sans','Yu Gothic','Meiryo',sans-serif" font-size="9.5" text-anchor="middle" fill="#333333" font-weight="normal"><tspan x="375.0" dy="0">SLAVE</tspan></text>
<rect x="102" y="490" width="40" height="28" rx="4" fill="#c33" stroke="#333333" stroke-width="1"/>
<text x="122.0" y="508.0" font-family="'Noto Sans JP','Noto Sans CJK JP','Hiragino Sans','Yu Gothic','Meiryo',sans-serif" font-size="10" text-anchor="middle" fill="#fff" font-weight="bold"><tspan x="122.0" dy="0">ON</tspan></text>
<rect x="160" y="490" width="34" height="28" rx="3" fill="#222" stroke="#333333" stroke-width="1"/>
<text x="177.0" y="508.0" font-family="'Noto Sans JP','Noto Sans CJK JP','Hiragino Sans','Yu Gothic','Meiryo',sans-serif" font-size="9" text-anchor="middle" fill="#ddd" font-weight="normal"><tspan x="177.0" dy="0">AC</tspan></text>
<rect x="280" y="490" width="108" height="28" rx="3" fill="#3a3a3a" stroke="#333333" stroke-width="1"/>
<line x1="288" y1="494" x2="288" y2="514" stroke="#777" stroke-width="2"/>
<line x1="300" y1="494" x2="300" y2="514" stroke="#777" stroke-width="2"/>
<line x1="312" y1="494" x2="312" y2="514" stroke="#777" stroke-width="2"/>
<line x1="324" y1="494" x2="324" y2="514" stroke="#777" stroke-width="2"/>
<line x1="336" y1="494" x2="336" y2="514" stroke="#777" stroke-width="2"/>
<line x1="348" y1="494" x2="348" y2="514" stroke="#777" stroke-width="2"/>
<line x1="360" y1="494" x2="360" y2="514" stroke="#777" stroke-width="2"/>
<line x1="372" y1="494" x2="372" y2="514" stroke="#777" stroke-width="2"/>
<line x1="384" y1="494" x2="384" y2="514" stroke="#777" stroke-width="2"/>
<text x="334.0" y="532.0" font-family="'Noto Sans JP','Noto Sans CJK JP','Hiragino Sans','Yu Gothic','Meiryo',sans-serif" font-size="9.5" text-anchor="middle" fill="#ccc" font-weight="normal"><tspan x="334.0" dy="0">放熱ファンの吸気口</tspan></text>
<circle cx="177.0" cy="348.0" r="10" fill="#333333"/>
<text x="177.0" y="352.3" font-family="'Noto Sans JP','Noto Sans CJK JP','Hiragino Sans','Yu Gothic','Meiryo',sans-serif" font-size="12" text-anchor="middle" fill="#fff" font-weight="bold"><tspan x="177.0" dy="0">9</tspan></text>
<line x1="177.0" y1="358.0" x2="177.0" y2="364.0" stroke="#333333" stroke-width="1" />
<circle cx="177.0" cy="364.0" r="2.2" fill="#333333"/>
<circle cx="380.0" cy="362.0" r="10" fill="#333333"/>
<text x="380.0" y="366.3" font-family="'Noto Sans JP','Noto Sans CJK JP','Hiragino Sans','Yu Gothic','Meiryo',sans-serif" font-size="12" text-anchor="middle" fill="#fff" font-weight="bold"><tspan x="380.0" dy="0">10</tspan></text>
<line x1="372.0" y1="368.0" x2="356.0" y2="380.0" stroke="#333333" stroke-width="1" />
<circle cx="356.0" cy="380.0" r="2.2" fill="#333333"/>
<circle cx="127.0" cy="436.0" r="10" fill="#333333"/>
<text x="127.0" y="440.3" font-family="'Noto Sans JP','Noto Sans CJK JP','Hiragino Sans','Yu Gothic','Meiryo',sans-serif" font-size="12" text-anchor="middle" fill="#fff" font-weight="bold"><tspan x="127.0" dy="0">11</tspan></text>
<line x1="127.0" y1="446.0" x2="127.0" y2="448.0" stroke="#333333" stroke-width="1" />
<circle cx="127.0" cy="448.0" r="2.2" fill="#333333"/>
<circle cx="189.0" cy="436.0" r="10" fill="#333333"/>
<text x="189.0" y="440.3" font-family="'Noto Sans JP','Noto Sans CJK JP','Hiragino Sans','Yu Gothic','Meiryo',sans-serif" font-size="12" text-anchor="middle" fill="#fff" font-weight="bold"><tspan x="189.0" dy="0">12</tspan></text>
<line x1="189.0" y1="446.0" x2="189.0" y2="448.0" stroke="#333333" stroke-width="1" />
<circle cx="189.0" cy="448.0" r="2.2" fill="#333333"/>
<circle cx="313.0" cy="436.0" r="10" fill="#333333"/>
<text x="313.0" y="440.3" font-family="'Noto Sans JP','Noto Sans CJK JP','Hiragino Sans','Yu Gothic','Meiryo',sans-serif" font-size="12" text-anchor="middle" fill="#fff" font-weight="bold"><tspan x="313.0" dy="0">13</tspan></text>
<line x1="313.0" y1="446.0" x2="313.0" y2="448.0" stroke="#333333" stroke-width="1" />
<circle cx="313.0" cy="448.0" r="2.2" fill="#333333"/>
<circle cx="122.0" cy="536.0" r="10" fill="#333333"/>
<text x="122.0" y="540.3" font-family="'Noto Sans JP','Noto Sans CJK JP','Hiragino Sans','Yu Gothic','Meiryo',sans-serif" font-size="12" text-anchor="middle" fill="#fff" font-weight="bold"><tspan x="122.0" dy="0">14</tspan></text>
<line x1="122.0" y1="526.0" x2="122.0" y2="520.0" stroke="#333333" stroke-width="1" />
<circle cx="122.0" cy="520.0" r="2.2" fill="#333333"/>
<circle cx="470.0" cy="330.0" r="8" fill="#333333"/>
<text x="470.0" y="334.3" font-family="'Noto Sans JP','Noto Sans CJK JP','Hiragino Sans','Yu Gothic','Meiryo',sans-serif" font-size="12" text-anchor="middle" fill="#fff" font-weight="bold"><tspan x="470.0" dy="0">1</tspan></text>
<text x="484.0" y="334.0" font-family="'Noto Sans JP','Noto Sans CJK JP','Hiragino Sans','Yu Gothic','Meiryo',sans-serif" font-size="11" text-anchor="start" fill="#333333" font-weight="normal"><tspan x="484.0" dy="0">発光管（リング状。本番の光を出す）</tspan></text>
<circle cx="470.0" cy="350.0" r="8" fill="#333333"/>
<text x="470.0" y="354.3" font-family="'Noto Sans JP','Noto Sans CJK JP','Hiragino Sans','Yu Gothic','Meiryo',sans-serif" font-size="12" text-anchor="middle" fill="#fff" font-weight="bold"><tspan x="470.0" dy="0">2</tspan></text>
<text x="484.0" y="354.0" font-family="'Noto Sans JP','Noto Sans CJK JP','Hiragino Sans','Yu Gothic','Meiryo',sans-serif" font-size="11" text-anchor="start" fill="#333333" font-weight="normal"><tspan x="484.0" dy="0">モデリングランプ（配置の確認用の連続光）</tspan></text>
<circle cx="470.0" cy="370.0" r="8" fill="#333333"/>
<text x="470.0" y="374.3" font-family="'Noto Sans JP','Noto Sans CJK JP','Hiragino Sans','Yu Gothic','Meiryo',sans-serif" font-size="12" text-anchor="middle" fill="#fff" font-weight="bold"><tspan x="470.0" dy="0">3</tspan></text>
<text x="484.0" y="374.0" font-family="'Noto Sans JP','Noto Sans CJK JP','Hiragino Sans','Yu Gothic','Meiryo',sans-serif" font-size="11" text-anchor="start" fill="#333333" font-weight="normal"><tspan x="484.0" dy="0">Bowens マウントの爪（用具を差して回す）</tspan></text>
<circle cx="470.0" cy="390.0" r="8" fill="#333333"/>
<text x="470.0" y="394.3" font-family="'Noto Sans JP','Noto Sans CJK JP','Hiragino Sans','Yu Gothic','Meiryo',sans-serif" font-size="12" text-anchor="middle" fill="#fff" font-weight="bold"><tspan x="470.0" dy="0">4</tspan></text>
<text x="484.0" y="394.0" font-family="'Noto Sans JP','Noto Sans CJK JP','Hiragino Sans','Yu Gothic','Meiryo',sans-serif" font-size="11" text-anchor="start" fill="#333333" font-weight="normal"><tspan x="484.0" dy="0">標準リフレクター（付属の金属の皿）</tspan></text>
<circle cx="470.0" cy="410.0" r="8" fill="#333333"/>
<text x="470.0" y="414.3" font-family="'Noto Sans JP','Noto Sans CJK JP','Hiragino Sans','Yu Gothic','Meiryo',sans-serif" font-size="12" text-anchor="middle" fill="#fff" font-weight="bold"><tspan x="470.0" dy="0">5</tspan></text>
<text x="484.0" y="414.0" font-family="'Noto Sans JP','Noto Sans CJK JP','Hiragino Sans','Yu Gothic','Meiryo',sans-serif" font-size="11" text-anchor="start" fill="#333333" font-weight="normal"><tspan x="484.0" dy="0">傘穴（アンブレラの軸を通す）</tspan></text>
<circle cx="470.0" cy="430.0" r="8" fill="#333333"/>
<text x="470.0" y="434.3" font-family="'Noto Sans JP','Noto Sans CJK JP','Hiragino Sans','Yu Gothic','Meiryo',sans-serif" font-size="12" text-anchor="middle" fill="#fff" font-weight="bold"><tspan x="470.0" dy="0">6</tspan></text>
<text x="484.0" y="434.0" font-family="'Noto Sans JP','Noto Sans CJK JP','Hiragino Sans','Yu Gothic','Meiryo',sans-serif" font-size="11" text-anchor="start" fill="#333333" font-weight="normal"><tspan x="484.0" dy="0">スタンド取り付け部と角度の締めネジ</tspan></text>
<circle cx="470.0" cy="450.0" r="8" fill="#333333"/>
<text x="470.0" y="454.3" font-family="'Noto Sans JP','Noto Sans CJK JP','Hiragino Sans','Yu Gothic','Meiryo',sans-serif" font-size="12" text-anchor="middle" fill="#fff" font-weight="bold"><tspan x="470.0" dy="0">7</tspan></text>
<text x="484.0" y="454.0" font-family="'Noto Sans JP','Noto Sans CJK JP','Hiragino Sans','Yu Gothic','Meiryo',sans-serif" font-size="11" text-anchor="start" fill="#333333" font-weight="normal"><tspan x="484.0" dy="0">放熱ファンの排気口</tspan></text>
<circle cx="470.0" cy="470.0" r="8" fill="#333333"/>
<text x="470.0" y="474.3" font-family="'Noto Sans JP','Noto Sans CJK JP','Hiragino Sans','Yu Gothic','Meiryo',sans-serif" font-size="12" text-anchor="middle" fill="#fff" font-weight="bold"><tspan x="470.0" dy="0">8</tspan></text>
<text x="484.0" y="474.0" font-family="'Noto Sans JP','Noto Sans CJK JP','Hiragino Sans','Yu Gothic','Meiryo',sans-serif" font-size="11" text-anchor="start" fill="#333333" font-weight="normal"><tspan x="484.0" dy="0">AC ケーブル</tspan></text>
<circle cx="470.0" cy="490.0" r="8" fill="#333333"/>
<text x="470.0" y="494.3" font-family="'Noto Sans JP','Noto Sans CJK JP','Hiragino Sans','Yu Gothic','Meiryo',sans-serif" font-size="12" text-anchor="middle" fill="#fff" font-weight="bold"><tspan x="470.0" dy="0">9</tspan></text>
<text x="484.0" y="494.0" font-family="'Noto Sans JP','Noto Sans CJK JP','Hiragino Sans','Yu Gothic','Meiryo',sans-serif" font-size="11" text-anchor="start" fill="#333333" font-weight="normal"><tspan x="484.0" dy="0">表示部（出力、チャンネル、グループ）</tspan></text>
<circle cx="470.0" cy="510.0" r="8" fill="#333333"/>
<text x="470.0" y="514.3" font-family="'Noto Sans JP','Noto Sans CJK JP','Hiragino Sans','Yu Gothic','Meiryo',sans-serif" font-size="12" text-anchor="middle" fill="#fff" font-weight="bold"><tspan x="470.0" dy="0">10</tspan></text>
<text x="484.0" y="514.0" font-family="'Noto Sans JP','Noto Sans CJK JP','Hiragino Sans','Yu Gothic','Meiryo',sans-serif" font-size="11" text-anchor="start" fill="#333333" font-weight="normal"><tspan x="484.0" dy="0">出力ダイヤル（0.1 段刻み）</tspan></text>
<circle cx="470.0" cy="530.0" r="8" fill="#333333"/>
<text x="470.0" y="534.3" font-family="'Noto Sans JP','Noto Sans CJK JP','Hiragino Sans','Yu Gothic','Meiryo',sans-serif" font-size="12" text-anchor="middle" fill="#fff" font-weight="bold"><tspan x="470.0" dy="0">11</tspan></text>
<text x="484.0" y="534.0" font-family="'Noto Sans JP','Noto Sans CJK JP','Hiragino Sans','Yu Gothic','Meiryo',sans-serif" font-size="11" text-anchor="start" fill="#333333" font-weight="normal"><tspan x="484.0" dy="0">テスト発光ボタン</tspan></text>
<circle cx="470.0" cy="550.0" r="8" fill="#333333"/>
<text x="470.0" y="554.3" font-family="'Noto Sans JP','Noto Sans CJK JP','Hiragino Sans','Yu Gothic','Meiryo',sans-serif" font-size="12" text-anchor="middle" fill="#fff" font-weight="bold"><tspan x="470.0" dy="0">12</tspan></text>
<text x="484.0" y="554.0" font-family="'Noto Sans JP','Noto Sans CJK JP','Hiragino Sans','Yu Gothic','Meiryo',sans-serif" font-size="11" text-anchor="start" fill="#333333" font-weight="normal"><tspan x="484.0" dy="0">モデリングランプのボタン</tspan></text>
<circle cx="470.0" cy="570.0" r="8" fill="#333333"/>
<text x="470.0" y="574.3" font-family="'Noto Sans JP','Noto Sans CJK JP','Hiragino Sans','Yu Gothic','Meiryo',sans-serif" font-size="12" text-anchor="middle" fill="#fff" font-weight="bold"><tspan x="470.0" dy="0">13</tspan></text>
<text x="484.0" y="574.0" font-family="'Noto Sans JP','Noto Sans CJK JP','Hiragino Sans','Yu Gothic','Meiryo',sans-serif" font-size="11" text-anchor="start" fill="#333333" font-weight="normal"><tspan x="484.0" dy="0">無線のチャンネルとグループ、光スレーブの切り替え</tspan></text>
<circle cx="470.0" cy="590.0" r="8" fill="#333333"/>
<text x="470.0" y="594.3" font-family="'Noto Sans JP','Noto Sans CJK JP','Hiragino Sans','Yu Gothic','Meiryo',sans-serif" font-size="12" text-anchor="middle" fill="#fff" font-weight="bold"><tspan x="470.0" dy="0">14</tspan></text>
<text x="484.0" y="594.0" font-family="'Noto Sans JP','Noto Sans CJK JP','Hiragino Sans','Yu Gothic','Meiryo',sans-serif" font-size="11" text-anchor="start" fill="#333333" font-weight="normal"><tspan x="484.0" dy="0">電源スイッチ（入り切りは本体で行う）</tspan></text>
</svg>
